<svg xmlns="http://www.w3.org/2000/svg" viewBox="0 0 512 512" width="512" height="512">
  <defs>
    <linearGradient id="grad" x1="0%" y1="0%" x2="100%" y2="100%">
      <stop offset="0%" stop-color="#a5b4fc" />
      <stop offset="100%" stop-color="#6366f1" />
    </linearGradient>
    <filter id="glow" x="-20%" y="-20%" width="140%" height="140%">
      <feGaussianBlur stdDeviation="16" result="blur" />
      <feComposite in="SourceGraphic" in2="blur" operator="over" />
    </filter>
  </defs>
  <!-- Background -->
  <rect width="512" height="512" rx="128" fill="#0b0f19" />
  <!-- Glowing Icon -->
  <g transform="translate(96, 96)" filter="url(#glow)">
    <!-- Feather logo -->
    <path d="M256 0c-35.3 0-64 28.7-64 64v224c0 35.3 28.7 64 64 64s64-28.7 64-64V64c0-35.3-28.7-64-64-64zm0 288c-17.7 0-32-14.3-32-32V64c0-17.7 14.3-32 32-32s32 14.3 32 32v192c0 17.7-14.3 32-32 32z" fill="url(#grad)" opacity="0" />
    <!-- Feather pointed vector -->
    <path d="M291.6 120.2l111.9-111.9c11-11 28.8-11 39.8 0l52.4 52.4c11 11 11 28.8 0 39.8L383.8 212.4l15 101.2c1.2 8-2.5 15.3-10.6 21l-75.1 75.1-48.4-48.4c-6.2-6.2-16.4-6.2-22.6 0l-111.6 111.6c-11 11-28.8 11-39.8 0l-75.2-75.2c-11-11-11-28.8 0-39.8l111.6-111.6c6.2-6.2 6.2-16.4 0-22.6l-48.4-48.4 75.1-75.1c5.7-5.7 13-9.4 21-10.6l101.2-15z" fill="url(#grad)"/>
  </g>
</svg>
